<svg xmlns="http://www.w3.org/2000/svg" version="1.1" xmlns:xlink="http://www.w3.org/1999/xlink" xmlns:svgjs="http://svgjs.dev/svgjs" width="1000" height="623" viewBox="0 0 1000 623"><g transform="matrix(1,0,0,1,-0.6060606060606233,0.2522267206477409)"><svg viewBox="0 0 396 247" data-background-color="#ffffff" preserveAspectRatio="xMidYMid meet" height="623" width="1000" xmlns="http://www.w3.org/2000/svg" xmlns:xlink="http://www.w3.org/1999/xlink"><g id="tight-bounds" transform="matrix(1,0,0,1,0.2400000000000091,-0.09999999999999432)"><svg viewBox="0 0 395.52 247.2" height="247.2" width="395.52"><g><svg></svg></g><g><svg viewBox="0 0 395.52 247.2" height="247.2" width="395.52"><g transform="matrix(1,0,0,1,39.55199999999999,91.710446669569)"><svg viewBox="0 0 316.416 63.779106660862" height="63.779106660862" width="316.416"><g><svg viewBox="0 0 316.416 63.779106660862" height="63.779106660862" width="316.416"><g><svg viewBox="0 0 316.416 63.779106660862" height="63.779106660862" width="316.416"><g><svg viewBox="0 0 316.416 63.779106660862" height="63.779106660862" width="316.416"><g id="textblocktransform"><svg viewBox="0 0 316.416 63.779106660862" height="63.779106660862" width="316.416" id="textblock"><g><svg viewBox="0 0 316.416 63.779106660862" height="63.779106660862" width="316.416"><g transform="matrix(1,0,0,1,0,0)"><svg width="316.416" viewBox="2.1 -36.55 229.68 46.29999999999999" height="63.779106660862" data-palette-color="#ee3e38"><path d="M13.85-5.7L13.85-5.7Q16.3-5.7 17.95-7.63 19.6-9.55 19.6-12.65L19.6-12.65Q19.6-16.7 18-18.6 16.4-20.5 13.95-20.5L13.95-20.5Q11.35-20.5 9.85-18.48 8.35-16.45 8.35-13L8.35-13Q8.35-9.45 9.9-7.58 11.45-5.7 13.85-5.7ZM19.6-21.7L19.6-25.35 25.6-25.35 25.6-2.3Q25.6 3.7 22.13 6.73 18.65 9.75 13.3 9.75L13.3 9.75Q8.3 9.75 4.55 7.95L4.55 7.95 4.55 1.85Q7.95 4.25 12.7 4.25L12.7 4.25Q19.6 4.25 19.6-2.35L19.6-2.35 19.6-4.55Q17.3-0.8 12.4-0.8L12.4-0.8Q8.15-0.8 5.13-3.93 2.1-7.05 2.1-13L2.1-13Q2.1-18.5 4.98-22.08 7.85-25.65 12.55-25.65L12.55-25.65Q17.3-25.65 19.6-21.7L19.6-21.7ZM44.75-8.5L44.75-10.9 41.65-10.9Q39.3-10.9 38.05-9.93 36.8-8.95 36.8-7.45L36.8-7.45Q36.8-4.25 40.5-4.25L40.5-4.25Q42.5-4.25 43.62-5.43 44.75-6.6 44.75-8.5L44.75-8.5ZM32.45-18.5L32.45-18.5 32.45-24.05Q35.3-25.8 40.65-25.8L40.65-25.8Q50.95-25.8 50.95-16.2L50.95-16.2 50.95 0 45 0 45-3.05Q43.25 0.2 38.4 0.2L38.4 0.2Q34.8 0.2 32.67-1.9 30.55-4 30.55-7.2L30.55-7.2Q30.55-10.8 33.25-12.85 35.95-14.9 41.05-14.9L41.05-14.9 44.75-14.9 44.75-16.45Q44.75-18.55 43.65-19.65 42.55-20.75 39.9-20.75L39.9-20.75Q35.85-20.75 32.45-18.5ZM57.15-25.35L63.15-25.35 63.15-21.35Q65.3-25.65 70.3-25.65L70.3-25.65Q75.84-25.65 77.5-20.85L77.5-20.85Q78.5-23.15 80.5-24.4 82.5-25.65 85.05-25.65L85.05-25.65Q88.9-25.65 91-23.33 93.09-21 93.09-16.7L93.09-16.7 93.09 0 87.05 0 87.05-15.55Q87.05-20.65 83.15-20.65L83.15-20.65Q81.2-20.65 79.67-18.95 78.15-17.25 78.15-13.6L78.15-13.6 78.15 0 72.09 0 72.09-15.55Q72.09-20.65 68.2-20.65L68.2-20.65Q66.25-20.65 64.7-18.95 63.15-17.25 63.15-13.6L63.15-13.6 63.15 0 57.15 0 57.15-25.35ZM103.89-14.75L114.54-14.75 114.54-15.5Q114.44-17.95 113.22-19.43 111.99-20.9 109.64-20.9L109.64-20.9Q107.49-20.9 105.92-19.33 104.34-17.75 103.89-14.75L103.89-14.75ZM118.64-6.6L118.64-6.6 118.64-1.4Q115.99 0.25 110.99 0.25L110.99 0.25Q104.94 0.25 101.44-3.35 97.94-6.95 97.94-12.65L97.94-12.65Q97.94-18.7 101.24-22.15 104.54-25.6 109.49-25.6 114.44-25.6 117.34-22.6 120.24-19.6 120.24-13.85L120.24-13.85Q120.24-12.45 119.89-10.25L119.89-10.25 103.99-10.25Q104.64-7.5 106.72-6.05 108.79-4.6 111.89-4.6L111.89-4.6Q115.89-4.6 118.64-6.6ZM125.74-25.35L131.74-25.35 131.74-20.85Q133.49-25.55 138.14-25.55L138.14-25.55Q139.19-25.55 139.84-25.4L139.84-25.4 139.84-19.6Q138.69-20.1 137.29-20.1L137.29-20.1Q134.84-20.1 133.29-18.1 131.74-16.1 131.74-13.1L131.74-13.1 131.74 0 125.69 0 125.74-25.35ZM143.39-35.35L149.39-35.35 149.39-21.05Q151.44-25.65 157.14-25.65L157.14-25.65Q160.84-25.65 163.11-23.33 165.39-21 165.39-16.6L165.39-16.6 165.39 0 159.39 0 159.39-15.55Q159.39-17.95 158.16-19.3 156.94-20.65 154.99-20.65L154.99-20.65Q152.84-20.65 151.11-19 149.39-17.35 149.39-13.6L149.39-13.6 149.39 0 143.39 0 143.39-35.35ZM177.89 0L171.89 0 171.89-25.35 177.89-25.35 177.89 0ZM171.29-32.95L171.29-32.95Q171.29-34.45 172.34-35.5 173.39-36.55 174.89-36.55 176.39-36.55 177.44-35.5 178.49-34.45 178.49-32.95L178.49-32.95Q178.49-31.4 177.44-30.35 176.39-29.3 174.89-29.3 173.39-29.3 172.34-30.35 171.29-31.4 171.29-32.95ZM197.68 0L191.18 0 182.03-25.35 188.33-25.35 191.68-14.6Q192.68-11.45 193.38-8.97 194.08-6.5 194.28-5.6L194.28-5.6 194.43-4.7Q194.93-7.5 197.28-14.6L197.28-14.6 200.78-25.35 206.98-25.35 197.68 0ZM215.43-14.75L226.08-14.75 226.08-15.5Q225.98-17.95 224.76-19.43 223.53-20.9 221.18-20.9L221.18-20.9Q219.03-20.9 217.46-19.33 215.88-17.75 215.43-14.75L215.43-14.75ZM230.18-6.6L230.18-6.6 230.18-1.4Q227.53 0.25 222.53 0.25L222.53 0.25Q216.48 0.25 212.98-3.35 209.48-6.95 209.48-12.65L209.48-12.65Q209.48-18.7 212.78-22.15 216.08-25.6 221.03-25.6 225.98-25.6 228.88-22.6 231.78-19.6 231.78-13.85L231.78-13.85Q231.78-12.45 231.43-10.25L231.43-10.25 215.53-10.25Q216.18-7.5 218.26-6.05 220.33-4.6 223.43-4.6L223.43-4.6Q227.43-4.6 230.18-6.6Z" opacity="1" transform="matrix(1,0,0,1,0,0)" fill="#ee3e38" class="undefined-text-0" data-fill-palette-color="primary" id="text-0"></path></svg></g></svg></g></svg></g></svg></g><g></g></svg></g></svg></g></svg></g><g mask="url(#66627fe9-5271-42b3-b15f-ba89ca8c67ed)"><g transform="matrix(3.9352, 0, 0, 3.9352, 1, 7.511599999999987)"><svg version="1.1" xmlns="http://www.w3.org/2000/svg" xmlns:xlink="http://www.w3.org/1999/xlink" x="0" y="0" viewBox="0 0 100 59" enable-background="new 0 0 100 59" xml:space="preserve" height="59" width="100" class="icon-none" data-fill-palette-color="accent" id="none"><path d="M97.901 18l-0.003 0.001C96.896 7.895 88.372 0 78 0c-3.855 0-7.444 1.11-10.498 3H32.498C29.444 1.11 25.855 0 22 0 11.628 0 3.104 7.895 2.102 18.001L2.099 18C1.751 22.175 0 50.691 0 51c0 4.418 3.581 8 8 8 18.377 0 25.943-15.686 28.666-24h26.668C66.057 43.314 73.623 59 92 59c4.419 0 8-3.582 8-8C100 50.691 98.249 22.175 97.901 18zM22 32c-6.629 0-12-5.373-12-12S15.371 8 22 8s12 5.373 12 12S28.629 32 22 32zM78 32c-6.629 0-12-5.373-12-12S71.371 8 78 8s12 5.373 12 12S84.629 32 78 32z" fill="#ee3e38" data-fill-palette-color="accent"></path><polygon points="31,17 25,17 25,11 19,11 19,17 13,17 13,23 19,23 19,29 25,29 25,23 31,23 " fill="#ee3e38" data-fill-palette-color="accent"></polygon><path d="M78 16c0 2.21-1.79 4-4 4-2.205 0-4-1.79-4-4s1.795-4 4-4C76.21 12 78 13.79 78 16z" fill="#ee3e38" data-fill-palette-color="accent"></path><path d="M86 24c0 2.21-1.79 4-4 4-2.205 0-4-1.79-4-4s1.795-4 4-4C84.21 20 86 21.79 86 24z" fill="#ee3e38" data-fill-palette-color="accent"></path></svg></g></g></svg></g><defs><mask id="66627fe9-5271-42b3-b15f-ba89ca8c67ed"><rect width="640" height="400" fill="white"></rect><rect width="348.05760000000004" height="93.89253942900132" fill="black" x="145.97119999999998" y="153.05373028549934" id="transform-me" transform="matrix(1,0,0,1,-122.24000000000001,-76.4)"></rect></mask></defs></svg><rect width="395.52" height="247.2" fill="none" stroke="none" visibility="hidden"></rect></g></svg></g></svg>